[Header]
FileType HTR
DataType HTRS
FileVersion 1
NumSegments 81
NumFrames 2
DataFrameRate 30
EulerRotationOrder ZYX
CalibrationUnits mm
RotationUnits Degrees
GlobalAxisofGravity Y
BoneLengthAxis Y
ScaleFactor 1.0
[SegmentNames&Hierarchy]
Hips	GLOBAL
LeftUpLeg	Hips
LeftLeg	LeftUpLeg
LeftFoot	LeftLeg
LeftToeBase	LeftFoot
LeftToeEnd	LeftToeBase
LeftLegRoll	LeftLeg
LeftUpLegRoll	LeftUpLeg
Spine	Hips
Spine1	Spine
Spine2	Spine1
LeftShoulder	Spine2
LeftArm	LeftShoulder
LeftForeArm	LeftArm
LeftForeArmRoll	LeftForeArm
LeftHand	LeftForeArm
LeftHandThumb1	LeftHand
LeftHandThumb2	LeftHandThumb1
LeftHandThumb3	LeftHandThumb2
LeftHandThumb4	LeftHandThumb3
LeftHandIndex1	LeftHand
LeftHandIndex2	LeftHandIndex1
LeftHandIndex3	LeftHandIndex2
LeftHandIndex4	LeftHandIndex3
LeftHandMiddle1	LeftHand
LeftHandMiddle2	LeftHandMiddle1
LeftHandMiddle3	LeftHandMiddle2
LeftHandMiddle4	LeftHandMiddle3
LeftHandRing1	LeftHand
LeftHandRing2	LeftHandRing1
LeftHandRing3	LeftHandRing2
LeftHandRing4	LeftHandRing3
LeftHandPinky1	LeftHand
LeftHandPinky2	LeftHandPinky1
LeftHandPinky3	LeftHandPinky2
LeftHandPinky4	LeftHandPinky3
LH_WP	LeftHand
LeftArmRoll	LeftArm
RightShoulder	Spine2
RightArm	RightShoulder
RightForeArm	RightArm
RightHand	RightForeArm
RightHandThumb1	RightHand
RightHandThumb2	RightHandThumb1
RightHandThumb3	RightHandThumb2
RightHandThumb4	RightHandThumb3
RightHandIndex1	RightHand
RightHandIndex2	RightHandIndex1
RightHandIndex3	RightHandIndex2
RightHandIndex4	RightHandIndex3
RightHandMiddle1	RightHand
RightHandMiddle2	RightHandMiddle1
RightHandMiddle3	RightHandMiddle2
RightHandMiddle4	RightHandMiddle3
RightHandRing1	RightHand
RightHandRing2	RightHandRing1
RightHandRing3	RightHandRing2
RightHandRing4	RightHandRing3
RightHandPinky1	RightHand
RightHandPinky2	RightHandPinky1
RightHandPinky3	RightHandPinky2
RightHandPinky4	RightHandPinky3
RH_WP	RightHand
RightForeArmRoll	RightForeArm
RightArmRoll	RightArm
Neck	Spine2
Neck1	Neck
Head	Neck1
Jaw	Head
L_Eye	Head
R_Eye_Socket	Head
L_Eye_Socket	Head
R_Eye	Head
BK_WEP1	Spine2
RightUpLeg	Hips
RightLeg	RightUpLeg
RightFoot	RightLeg
RightToeBase	RightFoot
RightToeEnd	RightToeBase
RightLegRoll	RightLeg
RightUpLegRoll	RightUpLeg
[BasePosition]
Hips	0	0	0	-90	-0	90	1
LeftUpLeg	0	0	0	0.1245552539	2.943081661	177.8888274	1
LeftLeg	0	0	0	-1.553056268e-018	-0.4645708947	-3.190265207	1
LeftFoot	0	0	0	-3.427050049	1.138743235	66.87228657	1
LeftToeBase	0	0	0	-0.1150285401	1.405135968	23.664964	1
LeftToeEnd	0	0	0	0	86.14893154	4.67902715	1
LeftLegRoll	0	0	0	0	-0.0003937979005	-0.0001763048027	1
LeftUpLegRoll	0	0	0	-7.231744079e-028	1.685187608e-005	2.666244888e-005	1
Spine	0	0	0	0	0	-3.518269458	1
Spine1	0	0	0	0	-0	7.885175398	1
Spine2	0	0	0	0	0	-0.09285174208	1
LeftShoulder	0	0	0	160.7860865	59.06322903	63.61338722	1
LeftArm	0	0	0	2.904619295	-26.91541272	-17.55355673	1
LeftForeArm	0	0	0	-90.22254753	-4.753527924	8.383736267	1
LeftForeArmRoll	0	0	0	0	0	0	1
LeftHand	0	0	0	90	-0	0	1
LeftHandThumb1	0	0	0	108.0365432	-19.14265923	-11.8633769	1
LeftHandThumb2	0	0	0	-15.63070336	0.2480216413	-4.679087203	1
LeftHandThumb3	0	0	0	-0.5621291509	1.199440794	-4.464397336	1
LeftHandThumb4	0	0	0	0	0	0	1
LeftHandIndex1	0	0	0	-0.1287480184	2.273223042	-5.916767355	1
LeftHandIndex2	0	0	0	0	0	0	1
LeftHandIndex3	0	0	0	0	0	0	1
LeftHandIndex4	0	0	0	0.06487671692	1.045318787	6.79153565	1
LeftHandMiddle1	0	0	0	-0.1873173809	2.298574433	-7.334490242	1
LeftHandMiddle2	0	0	0	0	0	0	1
LeftHandMiddle3	0	0	0	0	0	0	1
LeftHandMiddle4	0	0	0	0.1011317606	1.031425995	10.25668623	1
LeftHandRing1	0	0	0	-0.2038904391	2.187828672	-7.999827968	1
LeftHandRing2	0	0	0	0	0	0	1
LeftHandRing3	0	0	0	0	0	0	1
LeftHandRing4	0	0	0	0.1270826821	1.220105684	11.26838389	1
LeftHandPinky1	0	0	0	-0.1150589234	1.798482907	-6.335472682	1
LeftHandPinky2	0	0	0	0	0	0	1
LeftHandPinky3	0	0	0	0	0	0	1
LeftHandPinky4	0	0	0	0.09523892401	1.784551098	6.714729621	1
LH_WP	0	0	0	4.792186366e-012	2.776477095	-2.674328027	1
LeftArmRoll	0	0	0	0	2.176196996e-005	0	1
RightShoulder	0	0	0	160.7860865	59.06322903	-116.3866128	1
RightArm	0	0	0	2.904619295	-26.91541272	-17.55355673	1
RightForeArm	0	0	0	-90.22254753	-4.753527924	8.383736267	1
RightHand	0	0	0	90	-0	0	1
RightHandThumb1	0	0	0	108.0365432	-19.14265923	-11.8633769	1
RightHandThumb2	0	0	0	-15.63070336	0.2480216413	-4.679087203	1
RightHandThumb3	0	0	0	-0.5621291509	1.199440794	-4.464397336	1
RightHandThumb4	0	0	0	1.20741827e-006	-0	0	1
RightHandIndex1	0	0	0	-0.1287480183	2.273223042	-5.916767355	1
RightHandIndex2	0	0	0	0	0	0	1
RightHandIndex3	0	0	0	0	0	0	1
RightHandIndex4	0	0	0	0.06487671641	1.045318787	6.79153565	1
RightHandMiddle1	0	0	0	-0.187317381	2.298574433	-7.334490242	1
RightHandMiddle2	0	0	0	0	0	0	1
RightHandMiddle3	0	0	0	0	0	0	1
RightHandMiddle4	0	0	0	0.1011317605	1.031425995	10.25668623	1
RightHandRing1	0	0	0	-0.2038904391	2.187828672	-7.999827968	1
RightHandRing2	0	0	0	0	0	0	1
RightHandRing3	0	0	0	0	0	0	1
RightHandRing4	0	0	0	0.1270826818	1.220105684	11.26838389	1
RightHandPinky1	0	0	0	-0.1150589234	1.798482907	-6.335472682	1
RightHandPinky2	0	0	0	0	0	0	1
RightHandPinky3	0	0	0	0	0	0	1
RightHandPinky4	0	0	0	0.09523892401	1.784551098	6.714729621	1
RH_WP	0	0	0	4.903613047e-012	2.776477095	-2.674328027	1
RightForeArmRoll	0	0	0	0	0	0	1
RightArmRoll	0	0	0	0	2.17619649e-005	0	1
Neck	0	0	0	-0.5911792768	-0.1801087749	-21.21735117	1
Neck1	0	0	0	0.6101271651	0.09836090716	7.78649821	1
Head	0	0	0	0	-0	9.996624533	1
Jaw	0	0	0	-0.06946325017	0.08775954594	-129.2006421	1
L_Eye	0	0	0	90.83837297	89.99999895	0	1
R_Eye_Socket	0	0	0	90.83837297	89.99999895	0	1
L_Eye_Socket	0	0	0	90.83837262	89.99999895	0	1
R_Eye	0	0	0	90.83837262	89.99999895	0	1
BK_WEP1	0	0	0	94.2740542	90	0	1
RightUpLeg	0	0	0	0.1245552539	2.943081661	-2.111172621	1
RightLeg	0	0	0	1.770668338e-011	-0.4645708947	-3.190265207	1
RightFoot	0	0	0	-3.427050049	1.138743235	66.87228657	1
RightToeBase	0	0	0	-0.1150285401	1.405135968	23.664964	1
RightToeEnd	0	0	0	-4.55797616e-013	86.14893154	4.67902715	1
RightLegRoll	0	0	0	0.0001763058084	-5.425123434e-010	1.211761319e-009	1
RightUpLegRoll	0	0	0	2.663171688e-005	1.239300521e-011	-7.832936944e-012	1
[Hips]
2	-44.11493301	925.6564331	492.9737854	17.56460571	9.705963135	-6.348118782	1.0
3	-39.84784698	941.2497559	727.12854	14.18523312	6.911276817	-6.304816246	1.0
[LeftUpLeg]
2	-47.72187042	-9.041723251	-88.56549072	-5.563016891	11.38083076	-16.23268318	1.0
3	-47.72187042	-9.041810989	-88.56558228	-4.042584419	6.818025112	-24.22978592	1.0
[LeftLeg]
2	428.6572571	-0.0001100013178	-0.0001534036564	6.908086777	5.503236771	-20.67497063	1.0
3	428.6574707	-5.586847692e-005	-3.687998105e-005	5.759426594	7.114262104	-22.70607185	1.0
[LeftFoot]
2	444.4226074	-0.02843218297	0.7855234146	4.8388834	-2.368128538	-1.69490099	1.0
3	444.4229431	-0.0133041963	0.617089808	5.103967667	-0.5684830546	-28.40202332	1.0
[LeftToeBase]
2	155.2785339	-0.0001040969	6.297896562e-006	-6.129076481	1.405173779	15.62780762	1.0
3	155.278656	-2.611843956e-005	6.297896562e-006	0.5110759139	-0.1145104542	-1.312134743	1.0
[LeftToeEnd]
2	87.1754837	4.440892099e-015	-1.243449788e-013	0	0	0	1.0
3	87.1754837	4.440892099e-015	-1.243449788e-013	0	0	0	1.0
[LeftLegRoll]
2	198.5740051	1.350196817e-005	7.328816537e-006	3.620806932	-0.1828500032	-0.006583071779	1.0
3	198.5738373	1.350196817e-005	7.328816537e-006	2.784858227	-0.1435892135	-0.003048800165	1.0
[LeftUpLegRoll]
2	166.7198334	-5.720811168e-005	-6.571605809e-006	2.000703887e-007	1.379017613e-005	1.322874255e-006	1.0
3	166.7198334	-4.479121344e-005	-6.571605809e-006	2.000703887e-007	1.379017613e-005	1.322874255e-006	1.0
[Spine]
2	66.67907715	-8.790334702	-2.70905166e-005	-4.885930538	-4.327831745	-7.805213928	1.0
3	66.67919159	-8.790346146	-2.70905166e-005	-5.965873241	0.3415809274	-4.71512413	1.0
[Spine1]
2	120.7898407	-3.674251275e-006	5.73854777e-006	-11.58607483	-1.983538747	0.8116342425	1.0
3	120.7898407	1.292136312e-005	5.73854777e-006	-12.07259369	-3.076899529	-0.6865009069	1.0
[Spine2]
2	97.34932709	-5.394516847e-005	3.778036216e-006	-11.41460419	-2.634775877	0.9362073541	1.0
3	97.34932709	4.536891538e-006	3.778036216e-006	-11.96530914	-3.341601133	-0.7898942232	1.0
[LeftShoulder]
2	193.5426483	-57.9708252	-41.53356171	5.44665432	1.914122581	-0.9561491013	1.0
3	193.5426483	-57.9708252	-41.53356171	6.231945515	3.954676867	-1.656365395	1.0
[LeftArm]
2	156.878952	-7.891228961e-006	-3.424908209e-005	-2.013400316	-42.14693451	-57.85344696	1.0
3	156.8790894	-2.886803259e-006	-1.831252666e-005	0.3070559502	-38.22944641	-56.81308365	1.0
[LeftForeArm]
2	274.698761	0.003020222066	7.814254786e-005	-1.353733301	-0.3052243888	-87.05126953	1.0
3	274.6984558	0.003005568637	-0.0001098593348	-1.288183928	-0.6409176588	-94.42674255	1.0
[LeftForeArmRoll]
2	107.0116882	8.881784197e-014	2.842170943e-013	4.371239662	0	0	1.0
3	107.0116882	8.881784197e-014	2.842170943e-013	8.062335014	0	0	1.0
[LeftHand]
2	266.6987305	3.825810563e-005	0.000205453558	5.464049339	-22.3533783	3.241700411	1.0
3	266.6987	0.0001735534897	8.00260168e-005	10.07791901	-25.21116257	3.184094429	1.0
[LeftHandThumb1]
2	31.59936905	-14.66598034	50.44494629	-0.01297404896	-13.85638046	-3.613176346	1.0
3	31.59936905	-14.66598034	50.44494629	-0.0131871812	-13.8560915	-3.612252951	1.0
[LeftHandThumb2]
2	53.38057709	1.653608524e-005	0.0001156853396	-0.0002536315878	0.3000540137	-0.000939468795	1.0
3	53.38063049	-0.0001032338914	0.0001072469749	-0.0002536315878	0.3000540137	-0.003190482501	1.0
[LeftHandThumb3]
2	33.2300415	7.365097554e-005	-4.360179446e-006	-0.0004044212401	0.0001365369535	0.0005346832913	1.0
3	33.23005676	-1.024227277e-005	-6.973717973e-006	-0.0004044212401	0.0002442437108	0.001811609603	1.0
[LeftHandThumb4]
2	41.64096832	-0.0001021758289	0.0002003078407	-0.0005963343428	0.0001761054446	-7.360037853e-005	1.0
3	41.64096832	5.566210166e-005	0.0002003078407	-0.0005963343428	0.0001761054446	-7.360037853e-005	1.0
[LeftHandIndex1]
2	107.828476	-7.018170834	35.98754883	-5.758398765e-005	-8.956674719e-005	-6.681294441	1.0
3	107.828476	-7.018170834	35.98754883	-5.758398765e-005	-2.199339906e-005	-6.681264877	1.0
[LeftHandIndex2]
2	41.10884857	5.474074715e-005	-2.80177519e-005	-0.0001180831969	-0.02173396386	-6.721749306	1.0
3	41.10884857	5.474074715e-005	-2.315765232e-005	-0.0001180831969	-0.02173396386	-6.722082615	1.0
[LeftHandIndex3]
2	28.81015015	-6.260780356e-005	-6.338641106e-005	-0.0001884985686	-0.0213409327	-6.722255707	1.0
3	28.81015778	-6.260780356e-005	-7.44344361e-005	-0.0001884985686	-0.0217740722	-6.721369743	1.0
[LeftHandIndex4]
2	28.71860886	-4.528491991e-005	7.164054841e-005	-0.0005197712453	7.277534314e-005	0.0001651600323	1.0
3	28.718647	-4.528491991e-005	9.628578482e-006	-0.0005197712453	7.277534314e-005	0.0001651600323	1.0
[LeftHandMiddle1]
2	108.926857	-1.06894958	10.86118317	-0.0008985737804	-0.02296985127	-6.72151041	1.0
3	108.926857	-1.06894958	10.86118317	-0.0008985737804	-0.02294873446	-6.721786499	1.0
[LeftHandMiddle2]
2	50.48862839	-2.162819874e-005	-5.554509244e-006	-0.0009549590177	-0.02308406867	-6.728410721	1.0
3	50.48866653	-2.162819874e-005	-5.554509244e-006	-0.0009549590177	-0.02308406867	-6.727859974	1.0
[LeftHandMiddle3]
2	33.42199326	-4.074022581e-005	7.530885341e-005	-0.001054303022	-0.02305903472	-6.721644878	1.0
3	33.42199326	-4.074022581e-005	7.530885341e-005	-0.001054303022	-0.02303269319	-6.721874237	1.0
[LeftHandMiddle4]
2	30.04674721	2.541908543e-005	1.565556158e-005	-0.0005761348875	-2.442478035e-005	0.0001658203546	1.0
3	30.04674721	4.554243787e-005	1.565556158e-005	-0.0005761348875	-2.442478035e-005	0.0001658203546	1.0
[LeftHandRing1]
2	109.0503845	-2.691740036	-12.87386799	-0.001201222069	-0.02290125191	-6.721374512	1.0
3	109.0503845	-2.691740036	-12.87386799	-0.001201222069	-0.02290125191	-6.721518517	1.0
[LeftHandRing2]
2	46.28145218	0.4491938949	-0.04888922349	-0.001470138668	-0.02505244501	-6.721401691	1.0
3	46.28145218	0.4491938949	-0.04893565923	-0.001470138668	-0.02505244501	-6.720741272	1.0
[LeftHandRing3]
2	29.52356529	-0.4491446018	0.04897363856	-0.001541288686	-0.02495732531	-6.722090244	1.0
3	29.52356529	-0.4491446018	0.04897363856	-0.001541288686	-0.02530341037	-6.722821236	1.0
[LeftHandRing4]
2	29.06699181	-8.604244795e-005	2.636288446e-005	-0.0005856125499	-1.556767347e-005	0.0001773452823	1.0
3	29.06712341	-8.604244795e-005	-7.283116429e-005	-0.0005856125499	-1.556767347e-005	0.0001773452823	1.0
[LeftHandPinky1]
2	104.5423508	-10.75370884	-37.4310379	-0.002290672623	-0.02580310218	-6.722071171	1.0
3	104.5423508	-10.75370884	-37.4311409	-0.002290672623	-0.02568329498	-6.721251011	1.0
[LeftHandPinky2]
2	32.66370773	4.504872413e-005	-1.192557738e-005	-0.002319539664	-0.02607806399	-6.736907959	1.0
3	32.6635704	4.504872413e-005	-1.192557738e-005	-0.002319539664	-0.02607806399	-6.73826313	1.0
[LeftHandPinky3]
2	25.58543396	-0.0002099084086	6.552904779e-006	-0.002331972588	-0.02564098313	-6.720491886	1.0
3	25.58546257	-0.0002099084086	6.552904779e-006	-0.002331972588	-0.02600564621	-6.720396996	1.0
[LeftHandPinky4]
2	24.98874855	3.370519698e-005	2.254853462e-005	-0.0005195768899	8.110216731e-005	0.0001606175356	1.0
3	24.98874855	3.370519698e-005	2.254853462e-005	-0.0005195768899	8.110216731e-005	0.0001606175356	1.0
[LH_WP]
2	120	-50	-1.776356839e-014	0	0	0	1.0
3	120	-50	-1.776356839e-014	0	0	0	1.0
[LeftArmRoll]
2	132.8950653	0.0001588205487	6.377150567e-005	-2.663570626e-007	-4.568414909e-007	4.582375823e-006	1.0
3	132.8950195	0.0001182530832	3.665509212e-006	-2.663570626e-007	-4.568414909e-007	4.582375823e-006	1.0
[RightShoulder]
2	193.54216	-57.97084045	41.53350449	10.14388657	-4.706246376	-10.58681297	1.0
3	193.54216	-57.97092819	41.53350449	9.750600815	-6.101985931	-10.20764256	1.0
[RightArm]
2	-156.8790283	-0.0008324874798	0.0001407640375	28.09761429	44.0905304	-38.80558014	1.0
3	-156.8792419	-0.0008553516818	1.732390774e-005	28.96741867	44.44046783	-37.70376968	1.0
[RightForeArm]
2	-274.6984558	-0.003878721036	0.0002753918234	-1.510783911	-1.095406532	-67.84715271	1.0
3	-274.6986389	-0.003802865744	0.0001413180871	-1.568633318	0.4738689661	-68.2293396	1.0
[RightHand]
2	-266.6990967	-0.002974586561	0.0009896690026	5.423532963	-10.6965704	8.87141037	1.0
3	-266.6991272	-0.003162650857	0.0009627566906	3.674400806	-7.791284561	11.32790184	1.0
[RightHandThumb1]
2	-31.59879494	14.66024399	-50.44496155	-0.01159029827	-13.49977684	-2.857810497	1.0
3	-31.59879494	14.66024399	-50.44496155	-0.01156053971	-13.49981022	-2.857951403	1.0
[RightHandThumb2]
2	-53.38214111	-0.001606799429	-0.006659285165	0.0003864055034	-0.0001497382327	-0.0003049733932	1.0
3	-53.382164	-0.001575466944	-0.006627099589	0.0003864055034	-0.0001539939549	-0.0004049655108	1.0
[RightHandThumb3]
2	-33.22890854	-6.998400931e-005	0.00538565265	0.001325118588	-0.0003793798969	-0.0002149907814	1.0
3	-33.22890472	-6.998400931e-005	0.00538565265	0.001325118588	-0.00039100094	0.0003557285236	1.0
[RightHandThumb4]
2	-41.64128876	1.337759932e-005	-0.001961095491	0.001914707827	-0.0001924577227	-0.0005631271051	1.0
3	-41.64128876	-3.243750371e-006	-0.001961095491	0.001914707827	-0.0001924577227	-0.0005631271051	1.0
[RightHandIndex1]
2	-107.8280334	7.018873692	-35.9875946	0.0003881388693	-0.02164958604	-6.721627235	1.0
3	-107.8280334	7.018832207	-35.9875946	0.0003881388693	-0.02166127041	-6.721574306	1.0
[RightHandIndex2]
2	-41.10917664	-0.003337909468	4.21212826e-005	0.0005543127772	-0.02149415016	-6.721373081	1.0
3	-41.10917664	-0.003337909468	4.21212826e-005	0.0005543127772	-0.02149415016	-6.721529007	1.0
[RightHandIndex3]
2	-28.810215	0.001759051112	-9.90186436e-006	0.001298090094	-0.02072305605	-6.721271515	1.0
3	-28.810215	0.001759051112	-9.90186436e-006	0.001298090094	-0.02076965198	-6.721259117	1.0
[RightHandIndex4]
2	-28.71785355	-0.003107428085	3.000397555e-005	0.00226092455	0.0006115095457	0.0002031581535	1.0
3	-28.71785355	-0.003107428085	-1.330263331e-005	0.00226092455	0.0006115095457	0.0002031581535	1.0
[RightHandMiddle1]
2	-108.9268646	1.063685179	-10.86122894	0.0005381311639	-0.02275776118	-6.721591473	1.0
3	-108.9268646	1.063729048	-10.86122894	0.0005381311639	-0.02275776118	-6.721700191	1.0
[RightHandMiddle2]
2	-50.48839569	0.001322705648	-2.671446418e-005	0.0006534365821	-0.02252226323	-6.728994846	1.0
3	-50.48839569	0.001322705648	-2.671446418e-005	0.0006534365821	-0.02252226323	-6.728375435	1.0
[RightHandMiddle3]
2	-33.42206192	-0.003336391877	2.795420914e-005	0.001414699247	-0.02210452221	-6.720533371	1.0
3	-33.42206192	-0.003336391877	2.517522262e-005	0.001414699247	-0.02169580013	-6.721426964	1.0
[RightHandMiddle4]
2	-30.04626083	0.000816694228	3.326458318e-005	0.002405878855	0.00054273149	0.0001783560583	1.0
3	-30.04626083	0.000816694228	-6.861810834e-005	0.002405878855	0.00054273149	0.0001783560583	1.0
[RightHandRing1]
2	-109.0495605	2.691092491	12.87376881	0.0005415810738	-0.02260297164	-6.721745968	1.0
3	-109.0495911	2.691092491	12.87382603	0.0005415810738	-0.02260379866	-6.721744061	1.0
[RightHandRing2]
2	-46.2803688	-0.4511589408	0.04896107689	0.0006064998452	-0.02426320314	-6.721294403	1.0
3	-46.2803688	-0.4511589408	0.04896107689	0.0006064998452	-0.02426320314	-6.721305847	1.0
[RightHandRing3]
2	-29.52510643	0.4504946172	-0.04901462793	0.001238655415	-0.02362659201	-6.721272469	1.0
3	-29.52510643	0.4504946172	-0.04901462793	0.001238655415	-0.02333523333	-6.721269131	1.0
[RightHandRing4]
2	-29.06611252	-0.005823877174	7.770192315e-005	0.002492689295	0.0005187573261	0.0001824576757	1.0
3	-29.06611252	-0.005823877174	7.770192315e-005	0.002492689295	0.0005187573261	0.0001824576757	1.0
[RightHandPinky1]
2	-104.5423126	10.74965286	37.43103409	0.0005379587528	-0.02515815943	-6.721082687	1.0
3	-104.5423126	10.74951077	37.4310379	0.0005379587528	-0.02515815943	-6.72174263	1.0
[RightHandPinky2]
2	-32.66365051	0.005212226883	-3.022159945e-005	0.0007540693623	-0.02490916476	-6.737942219	1.0
3	-32.66365051	0.005212226883	-8.201468154e-005	0.0007540693623	-0.02490916476	-6.737030983	1.0
[RightHandPinky3]
2	-25.58576584	-0.002913864329	9.440085705e-005	0.001331240055	-0.02409267612	-6.722026825	1.0
3	-25.58576584	-0.002913864329	9.440085705e-005	0.001331240055	-0.02415750921	-6.721637726	1.0
[RightHandPinky4]
2	-24.98809814	-0.004919932224	6.394286174e-006	0.002199850045	0.0006204504753	0.0001916140027	1.0
3	-24.98809814	-0.004919932224	6.394286174e-006	0.002199850045	0.0006204504753	0.0001916140027	1.0
[RH_WP]
2	-90.81784058	44.75069046	-9.102725983	-0.1271575838	-2.744757175	2.677313566	1.0
3	-90.81784058	44.75069046	-9.102725983	-0.1271575838	-2.744757175	2.677313566	1.0
[RightForeArmRoll]
2	-107.0118866	-0.003058596514	1.442765006e-005	4.33882618	0	0	1.0
3	-107.0118866	-0.003058596514	1.442765006e-005	2.939520836	0	0	1.0
[RightArmRoll]
2	-132.8952942	0.0004744274192	0.0001277416159	-2.260197107e-006	-2.431532664e-007	7.477638519e-006	1.0
3	-132.8954468	0.0004744274192	3.662805466e-005	-2.260197107e-006	-2.431532664e-007	7.477638519e-006	1.0
[Neck]
2	269.5571594	2.838715955e-005	-5.438935659e-006	2.468375921	-0.09202359617	1.987616062	1.0
3	269.5569458	-5.271216651e-005	-5.438935659e-006	3.081279516	0.2535496056	1.460237861	1.0
[Neck1]
2	55.6479187	8.853046165e-005	1.173807505e-005	2.545629025	-0.5462065339	1.951899529	1.0
3	55.6479187	8.853046165e-005	1.173807505e-005	3.186330318	-0.2905888557	1.419429183	1.0
[Head]
2	48.2782402	-3.386705066e-005	-1.697512198e-005	9.501796722	-3.475510359	9.106483459	1.0
3	48.2782402	0.0001175540092	-1.697512198e-005	12.5213995	-2.628152847	8.249132156	1.0
[Jaw]
2	16.62527084	-28.49801064	-6.624434263e-007	0	0	0	1.0
3	16.62527084	-28.49801064	-6.624434263e-007	0	0	0	1.0
[L_Eye]
2	62.91468811	-92.7388916	-39.95373535	0	0	0	1.0
3	62.91468811	-92.7388916	-39.95373535	0	0	0	1.0
[R_Eye_Socket]
2	62.91468811	-92.7388916	39.94999695	0	0	0	1.0
3	62.91468811	-92.7388916	39.94999695	0	0	0	1.0
[L_Eye_Socket]
2	62.91468811	-92.7388916	-39.95373535	0	0	0	1.0
3	62.91468811	-92.7388916	-39.95373535	0	0	0	1.0
[R_Eye]
2	62.91468811	-92.7388916	39.94999695	0	0	0	1.0
3	62.91468811	-92.7388916	39.94999695	0	0	0	1.0
[BK_WEP1]
2	159.8800049	132.8500061	-1.533420634e-012	0	0	0	1.0
3	159.8800049	132.8500061	-1.533420634e-012	0	0	0	1.0
[RightUpLeg]
2	-47.72180176	-9.041695595	88.56571198	-20.06814003	9.351919174	75.27888489	1.0
3	-47.72180176	-9.041682243	88.56565857	-22.64378548	7.275183678	65.88552856	1.0
[RightLeg]
2	-428.6570435	-0.0001174942663	0.0004888930707	-12.62836647	-3.276481867	-83.66863251	1.0
3	-428.6573486	-0.0002636573627	0.0004888930707	-5.692165375	-2.121529818	-53.42031097	1.0
[RightFoot]
2	-444.4152527	0.1574770361	2.019881964	4.422555447	13.06021214	8.105903625	1.0
3	-444.421936	0.04477808625	1.030338049	1.761010885	6.817138195	9.972603798	1.0
[RightToeBase]
2	-155.278717	0.0001085136755	-2.909067916e-005	1.409842014	0.1143172383	-0.3496490717	1.0
3	-155.2787476	7.428698154e-006	-2.909067916e-005	1.603568554	0.1298933923	-0.3974823058	1.0
[RightToeEnd]
2	-87.17578125	-5.002963007e-005	-0.0004951364244	0	0	0	1.0
3	-87.17578125	-5.002963007e-005	-0.0004951364244	0	0	0	1.0
[RightLegRoll]
2	-198.5740814	-0.0001528489229	-0.0004470431304	-9.890958786	0.4710572362	-0.03672469035	1.0
3	-198.5742188	0.0001963748655	-0.0004470431304	-5.017983437	0.2404241562	-0.01041851752	1.0
[RightUpLegRoll]
2	-166.7200928	-1.580969001e-005	-3.218563143e-005	1.387047269e-005	-1.121582272e-006	7.828991329e-006	1.0
3	-166.7199707	-8.14528903e-005	-3.218563143e-005	1.387047269e-005	-1.121582272e-006	7.828991329e-006	1.0
[EndOfFile]
